<?xml version="1.0" encoding="UTF-8" standalone="no"?>
<!-- Created with Inkscape (http://www.inkscape.org/) -->

<svg
   width="210mm"
   height="297mm"
   viewBox="0 0 210 297"
   version="1.1"
   id="svg1"
   inkscape:version="1.3.2 (091e20e, 2023-11-25, custom)"
   sodipodi:docname="src.svg"
   xml:space="preserve"
   xmlns:inkscape="http://www.inkscape.org/namespaces/inkscape"
   xmlns:sodipodi="http://sodipodi.sourceforge.net/DTD/sodipodi-0.dtd"
   xmlns="http://www.w3.org/2000/svg"
   xmlns:svg="http://www.w3.org/2000/svg"><sodipodi:namedview
     id="namedview1"
     pagecolor="#ffffff"
     bordercolor="#666666"
     borderopacity="1.0"
     inkscape:showpageshadow="2"
     inkscape:pageopacity="0.0"
     inkscape:pagecheckerboard="0"
     inkscape:deskcolor="#d1d1d1"
     inkscape:document-units="mm"
     showguides="false"
     inkscape:zoom="1.9123634"
     inkscape:cx="634.55513"
     inkscape:cy="973.40287"
     inkscape:window-width="1920"
     inkscape:window-height="1017"
     inkscape:window-x="-8"
     inkscape:window-y="-8"
     inkscape:window-maximized="1"
     inkscape:current-layer="layer1" /><defs
     id="defs1" /><g
     inkscape:label="Layer 1"
     inkscape:groupmode="layer"
     id="layer1"><rect
       style="fill:none;stroke:#cc17d4;stroke-width:5.29166667;stroke-linecap:round;stroke-linejoin:bevel;stroke-dasharray:none;stroke-opacity:1"
       id="rect1"
       width="17.364189"
       height="17.364189"
       x="59.689404"
       y="85.012177"
       rx="2.5056412"
       ry="2.7729127"
       inkscape:export-filename="BehaviourTreeSequence.svg"
       inkscape:export-xdpi="390.85"
       inkscape:export-ydpi="390.85" /><rect
       style="fill:none;stroke:#cc17d4;stroke-width:5.29167;stroke-linecap:round;stroke-linejoin:bevel;stroke-dasharray:none;stroke-opacity:1"
       id="rect2"
       width="17.364189"
       height="17.364189"
       x="86.147728"
       y="85.012177"
       rx="2.5056412"
       ry="2.7729127" /><rect
       style="fill:none;stroke:#cc17d4;stroke-width:5.29167;stroke-linecap:round;stroke-linejoin:bevel;stroke-dasharray:none;stroke-opacity:1"
       id="rect3"
       width="17.364189"
       height="17.364189"
       x="112.60604"
       y="85.012177"
       rx="2.5056412"
       ry="2.7729127" /><path
       style="fill:none;stroke:#cc17d4;stroke-width:5.29166;stroke-linecap:butt;stroke-linejoin:miter;stroke-dasharray:none;stroke-opacity:1"
       d="M 76.696667,93.694275 H 86.736289"
       id="path3" /><path
       style="fill:none;stroke:#cc17d4;stroke-width:5.29166;stroke-linecap:butt;stroke-linejoin:miter;stroke-dasharray:none;stroke-opacity:1"
       d="m 103.155,93.694275 h 10.03963"
       id="path4" /><path
       style="fill:none;stroke:#cc17d4;stroke-width:5.29167;stroke-linecap:round;stroke-linejoin:miter;stroke-dasharray:none;stroke-opacity:1"
       d="m 72.228734,90.600936 -5.414967,5.339677 -2.299506,-2.420777"
       id="path18"
       sodipodi:nodetypes="ccc" /><path
       style="fill:none;stroke:#cc17d4;stroke-width:5.29167;stroke-linecap:round;stroke-linejoin:miter;stroke-dasharray:none;stroke-opacity:1"
       d="m 98.687069,90.600936 -5.414967,5.339677 -2.299506,-2.420777"
       id="path19"
       sodipodi:nodetypes="ccc" /><path
       style="fill:none;stroke:#cc17d4;stroke-width:5.29167;stroke-linecap:round;stroke-linejoin:miter;stroke-dasharray:none;stroke-opacity:1"
       d="m 125.14542,90.600936 -5.41497,5.339677 -2.29951,-2.420777"
       id="path20"
       sodipodi:nodetypes="ccc" /><g
       id="g32"
       transform="translate(-20.238585,0.67878342)"><rect
         style="fill:none;stroke:#cc17d4;stroke-width:5.29167;stroke-linecap:round;stroke-linejoin:bevel;stroke-dasharray:none;stroke-opacity:1"
         id="rect4"
         width="17.364189"
         height="17.364189"
         x="59.689404"
         y="137.92883"
         rx="2.5056412"
         ry="2.7729127"
         inkscape:export-filename="BehaviourTreeSelector.svg"
         inkscape:export-xdpi="390.85"
         inkscape:export-ydpi="390.85" /><rect
         style="fill:none;stroke:#cc17d4;stroke-width:5.29167;stroke-linecap:round;stroke-linejoin:bevel;stroke-dasharray:none;stroke-opacity:1"
         id="rect5"
         width="17.364189"
         height="17.364189"
         x="59.689404"
         y="164.38719"
         rx="2.5056412"
         ry="2.7729127" /><g
         id="g15"
         transform="matrix(0.45341507,0,0,0.45065171,25.503543,80.54046)"
         style="stroke:#cc17d4;stroke-width:2.21224;stroke-opacity:1"><path
           style="fill:none;stroke:#cc17d4;stroke-width:11.7064;stroke-linecap:round;stroke-linejoin:miter;stroke-dasharray:none;stroke-opacity:1"
           d="M 101.80787,139.96016 88.506341,153.26169"
           id="path8" /><path
           style="fill:none;stroke:#cc17d4;stroke-width:11.7064;stroke-linecap:round;stroke-linejoin:miter;stroke-dasharray:none;stroke-opacity:1"
           d="M 101.30469,153.26169 88.003165,139.96016"
           id="path9" /></g><rect
         style="fill:none;stroke:#cc17d4;stroke-width:5.29167;stroke-linecap:round;stroke-linejoin:bevel;stroke-dasharray:none;stroke-opacity:1"
         id="rect13"
         width="17.364189"
         height="17.364189"
         x="59.689404"
         y="190.84555"
         rx="2.5056412"
         ry="2.7729127" /><path
         style="fill:none;stroke:#cc17d4;stroke-width:5.29167;stroke-linecap:round;stroke-linejoin:miter;stroke-dasharray:none;stroke-opacity:1"
         d="m 72.228734,196.43433 -5.414967,5.33968 -2.299506,-2.42078"
         id="path17"
         sodipodi:nodetypes="ccc" /><g
         id="g22"
         transform="matrix(0.45341507,0,0,0.45065171,25.503543,106.9988)"
         style="stroke:#cc17d4;stroke-width:2.21224;stroke-opacity:1"><path
           style="fill:none;stroke:#cc17d4;stroke-width:11.7064;stroke-linecap:round;stroke-linejoin:miter;stroke-dasharray:none;stroke-opacity:1"
           d="M 101.80787,139.96016 88.506341,153.26169"
           id="path21" /><path
           style="fill:none;stroke:#cc17d4;stroke-width:11.7064;stroke-linecap:round;stroke-linejoin:miter;stroke-dasharray:none;stroke-opacity:1"
           d="M 101.30469,153.26169 88.003165,139.96016"
           id="path22" /></g></g><rect
       style="fill:none;stroke:#cc17d4;stroke-width:5.29167;stroke-linecap:round;stroke-linejoin:bevel;stroke-dasharray:none;stroke-opacity:1"
       id="rect22"
       width="17.364189"
       height="17.364189"
       x="59.689404"
       y="47.970512"
       rx="2.5056412"
       ry="2.7729127"
       inkscape:export-filename="BehaviourTree.svg"
       inkscape:export-xdpi="390.85"
       inkscape:export-ydpi="390.85" /><rect
       style="fill:none;stroke:#cc17d4;stroke-width:5.29167;stroke-linecap:round;stroke-linejoin:bevel;stroke-dasharray:none;stroke-opacity:1"
       id="rect23"
       width="17.364189"
       height="17.364189"
       x="86.147728"
       y="47.970512"
       rx="2.5056412"
       ry="2.7729127" /><rect
       style="fill:none;stroke:#cc17d4;stroke-width:5.29167;stroke-linecap:round;stroke-linejoin:bevel;stroke-dasharray:none;stroke-opacity:1"
       id="rect24"
       width="17.364189"
       height="17.364189"
       x="112.60604"
       y="47.970512"
       rx="2.5056412"
       ry="2.7729127" /><path
       style="fill:none;stroke:#cc17d4;stroke-width:5.29166;stroke-linecap:butt;stroke-linejoin:miter;stroke-dasharray:none;stroke-opacity:1"
       d="M 94.829826,48.081014 V 25.17446"
       id="path24" /><rect
       style="fill:none;stroke:#cc17d4;stroke-width:5.29167;stroke-linecap:round;stroke-linejoin:bevel;stroke-dasharray:none;stroke-opacity:1"
       id="rect28"
       width="17.364189"
       height="17.364189"
       x="86.147728"
       y="5.637176"
       rx="2.5056412"
       ry="2.7729127" /><path
       style="fill:none;stroke:#cc17d4;stroke-width:5.29166;stroke-linecap:butt;stroke-linejoin:round;stroke-dasharray:none;stroke-opacity:1"
       d="M 68.371488,49.501582 V 36.944784 h 52.916682 v 12.556798"
       id="path29"
       sodipodi:nodetypes="cccc" /><path
       sodipodi:type="star"
       style="fill:#cc17d4;fill-opacity:1;stroke:#cc17d4;stroke-width:5.29167;stroke-linecap:round;stroke-linejoin:round;stroke-dasharray:none;stroke-opacity:1"
       id="path31"
       inkscape:flatsided="false"
       sodipodi:sides="3"
       sodipodi:cx="167.87822"
       sodipodi:cy="99.396423"
       sodipodi:r1="8.6180277"
       sodipodi:r2="4.5244651"
       sodipodi:arg1="0"
       sodipodi:arg2="1.0471976"
       inkscape:rounded="0"
       inkscape:randomized="0"
       d="m 176.49625,99.396423 -6.3558,3.918307 -6.57124,3.54512 -0.21546,-7.463427 0.21546,-7.463431 6.57124,3.54513 z"
       inkscape:transform-center-x="-2.0467796"
       inkscape:transform-center-y="-1.2522384e-06"
       transform="translate(2.7392716,19.370564)"
       inkscape:export-filename="BehaviourTreeAction.svg"
       inkscape:export-xdpi="390.85"
       inkscape:export-ydpi="390.85" /><rect
       style="fill:none;stroke:#cc17d4;stroke-width:5.29167;stroke-linecap:round;stroke-linejoin:bevel;stroke-dasharray:none;stroke-opacity:1"
       id="rect31"
       width="17.364189"
       height="17.364189"
       x="-31.601505"
       y="205.68765"
       rx="2.5056412"
       ry="2.7729127"
       transform="rotate(-45)"
       inkscape:export-filename="BehaviourTreeCondition.svg"
       inkscape:export-xdpi="390.85"
       inkscape:export-ydpi="390.85" /><rect
       style="fill:none;fill-opacity:1;stroke:none;stroke-width:5.29167;stroke-linecap:round;stroke-linejoin:round;stroke-dasharray:none;stroke-opacity:1"
       id="rect32"
       width="76.6996"
       height="76.6996"
       x="9.7831125"
       y="135.39827"
       rx="2.5056412"
       ry="2.7729127"
       inkscape:export-filename="BehaviourTreeSelector.svg"
       inkscape:export-xdpi="390.85"
       inkscape:export-ydpi="390.85" /><circle
       style="fill:#cc17d4;fill-opacity:1;stroke:#cc17d4;stroke-width:5.29167;stroke-linecap:round;stroke-linejoin:round;stroke-dasharray:none;stroke-opacity:1"
       id="path32"
       cx="169.44351"
       cy="212.09789"
       r="11.739736"
       inkscape:export-filename="BehaviourTreeDecorator.svg"
       inkscape:export-xdpi="390.85"
       inkscape:export-ydpi="390.85" /><path
       style="fill:none;stroke:#cc17d4;stroke-width:10.5833;stroke-linecap:round;stroke-linejoin:miter;stroke-dasharray:none;stroke-opacity:1"
       d="m 169.44351,196.84917 v 9.78312"
       id="path33" /><rect
       style="fill:none;stroke:#cc17d4;stroke-width:5.29168;stroke-linecap:round;stroke-linejoin:bevel;stroke-dasharray:none;stroke-opacity:1"
       id="rect33"
       width="41.626308"
       height="31.40847"
       x="70.88607"
       y="226.34421"
       rx="2.5056412"
       ry="2.7729127"
       inkscape:export-filename="BehaviourTreeBlackboard.svg"
       inkscape:export-xdpi="390.85"
       inkscape:export-ydpi="390.85" /><rect
       style="fill:#cc17d4;fill-opacity:1;stroke:#cc17d4;stroke-width:1.32292;stroke-linecap:round;stroke-linejoin:round;stroke-dasharray:none;stroke-opacity:1"
       id="rect34"
       width="4.8418045"
       height="4.8418045"
       x="85.237511"
       y="232.21408" /><rect
       style="fill:#cc17d4;fill-opacity:1;stroke:#cc17d4;stroke-width:1.32292;stroke-linecap:round;stroke-linejoin:round;stroke-dasharray:none;stroke-opacity:1"
       id="rect35"
       width="4.8418045"
       height="4.8418045"
       x="77.538589"
       y="232.21408" /><rect
       style="fill:#cc17d4;fill-opacity:1;stroke:#cc17d4;stroke-width:1.32292;stroke-linecap:round;stroke-linejoin:round;stroke-dasharray:none;stroke-opacity:1"
       id="rect36"
       width="4.8418045"
       height="4.8418045"
       x="92.936432"
       y="232.21408" /><rect
       style="fill:#cc17d4;fill-opacity:1;stroke:#cc17d4;stroke-width:1.32292;stroke-linecap:round;stroke-linejoin:round;stroke-dasharray:none;stroke-opacity:1"
       id="rect37"
       width="4.8418045"
       height="4.8418045"
       x="77.530205"
       y="239.82356" /><rect
       style="fill:#cc17d4;fill-opacity:1;stroke:#cc17d4;stroke-width:1.32292;stroke-linecap:round;stroke-linejoin:round;stroke-dasharray:none;stroke-opacity:1"
       id="rect38"
       width="4.8418045"
       height="4.8418045"
       x="85.001328"
       y="239.82356" /><rect
       style="fill:#cc17d4;fill-opacity:1;stroke:#cc17d4;stroke-width:1.32292;stroke-linecap:round;stroke-linejoin:round;stroke-dasharray:none;stroke-opacity:1"
       id="rect39"
       width="4.8418045"
       height="4.8418045"
       x="100.63535"
       y="232.21408" /><rect
       style="fill:#cc17d4;fill-opacity:1;stroke:#cc17d4;stroke-width:1.32292;stroke-linecap:round;stroke-linejoin:round;stroke-dasharray:none;stroke-opacity:1"
       id="rect40"
       width="4.8418045"
       height="4.8418045"
       x="77.391861"
       y="247.43303" /><path
       style="fill:#cc17d4;fill-opacity:1;stroke-width:0.999999"
       d="m 141.16266,268.17502 c -0.84202,-0.22061 -1.5382,-0.80038 -1.91181,-1.59215 -0.27838,-0.58996 -0.27974,-0.61116 -0.27974,-4.38426 0,-1.87329 0.008,-3.40598 0.0189,-3.40598 0.0104,0 0.17239,0.0759 0.36005,0.16872 0.34609,0.17114 0.8086,0.3358 1.32317,0.47107 0.24683,0.0649 0.62659,0.0778 2.92356,0.0993 l 2.63987,0.0247 0.0298,0.20811 c 0.0663,0.46369 0.36959,0.87047 0.81116,1.08785 0.25112,0.12363 0.33577,0.1431 0.62216,0.1431 0.28639,0 0.37103,-0.0195 0.62216,-0.1431 0.44157,-0.21738 0.74488,-0.62416 0.81116,-1.08785 l 0.0298,-0.20811 2.63987,-0.0247 c 2.29697,-0.0215 2.67672,-0.0344 2.92355,-0.0993 0.51458,-0.13527 0.97709,-0.29993 1.32317,-0.47107 0.18766,-0.0928 0.34969,-0.16872 0.36005,-0.16872 0.0104,0 0.0188,1.53269 0.0188,3.40598 0,3.77208 -6.6e-4,3.78241 -0.28097,4.38426 -0.37028,0.79501 -1.07202,1.37532 -1.92777,1.59418 -0.32738,0.0837 -0.50451,0.086 -6.53771,0.0837 -5.95773,-0.002 -6.21369,-0.006 -6.51912,-0.0857 z m -10e-4,-10.15039 c -1.1943,-0.20031 -2.23152,-0.87286 -2.90237,-1.88197 -0.25734,-0.3871 -0.42898,-0.75602 -0.58437,-1.25606 l -0.12205,-0.39279 v -2.94589 -2.94589 l 0.12205,-0.39278 c 0.24794,-0.79786 0.63841,-1.45313 1.17218,-1.96708 0.67871,-0.65351 1.41999,-1.02115 2.37176,-1.17629 0.58835,-0.0959 12.37469,-0.0956 12.96619,3.3e-4 1.71384,0.27797 3.00587,1.4252 3.53966,3.14299 l 0.12206,0.39279 v 2.94589 2.94589 l -0.12206,0.39278 c -0.53499,1.72164 -1.81696,2.86362 -3.52576,3.14075 -0.33153,0.0538 -0.85983,0.0667 -2.73352,0.0668 l -2.32255,1.7e-4 -0.0123,-2.38945 -0.0123,-2.38944 -0.11567,-0.21821 c -0.15644,-0.29513 -0.40279,-0.53428 -0.69173,-0.67154 -0.20034,-0.0952 -0.30137,-0.11403 -0.611,-0.11403 -0.30962,0 -0.41065,0.0188 -0.61099,0.11403 -0.28895,0.13726 -0.53529,0.37641 -0.69173,0.67154 l -0.11567,0.21821 -0.0123,2.38944 -0.0123,2.38945 -2.3662,-0.004 c -1.80339,-0.003 -2.45247,-0.0189 -2.7289,-0.0653 z m -0.74933,-13.38319 c 0.001,-1.4209 0.0307,-1.66508 0.25904,-2.13034 0.27401,-0.55842 0.74762,-0.9509 1.34857,-1.11753 1.17104,-0.32472 2.38006,0.3671 2.69241,1.54063 0.0471,0.17698 0.0625,0.54124 0.0629,1.48903 l 4.9e-4,1.25473 -1.7348,10e-4 c -1.31727,0.001 -1.81883,0.0167 -2.08394,0.0646 -0.19203,0.0347 -0.39333,0.0635 -0.44734,0.0639 l -0.0982,8.3e-4 z m 14.00848,1.09923 c -0.23102,-0.0404 -0.83773,-0.058 -2.06213,-0.06 l -1.7348,-0.003 5e-4,-1.25473 c 5.4e-4,-1.36117 0.0195,-1.51177 0.24784,-1.96868 0.1576,-0.31538 0.58635,-0.7456 0.88939,-0.89245 1.15574,-0.56002 2.4615,-0.12571 2.9927,0.9954 0.19804,0.41799 0.23201,0.72133 0.23297,2.08394 l 8.2e-4,1.16745 -0.12002,-0.005 c -0.066,-0.003 -0.26731,-0.0312 -0.44734,-0.0627 z"
       id="path6"
       sodipodi:nodetypes="ssssssscssssscssssssscsscsscccssssscccssscccssscsccccccsssssccsccscccssssscccc"
       inkscape:export-filename="..\..\..\..\Godot_learning\TopDownCharacterController\Scripts\Inventory\PlayerInventory.svg"
       inkscape:export-xdpi="390.85"
       inkscape:export-ydpi="390.85" /></g></svg>
