<?xml version="1.0" encoding="UTF-8" standalone="no"?>
<!-- Created with Inkscape (http://www.inkscape.org/) -->

<svg
   width="122.41417mm"
   height="34.468494mm"
   viewBox="0 0 122.41417 34.468494"
   version="1.1"
   id="svg1"
   inkscape:version="1.3.2 (091e20e, 2023-11-25, custom)"
   sodipodi:docname="logo.svg"
   xmlns:inkscape="http://www.inkscape.org/namespaces/inkscape"
   xmlns:sodipodi="http://sodipodi.sourceforge.net/DTD/sodipodi-0.dtd"
   xmlns:xlink="http://www.w3.org/1999/xlink"
   xmlns="http://www.w3.org/2000/svg"
   xmlns:svg="http://www.w3.org/2000/svg">
  <sodipodi:namedview
     id="namedview1"
     pagecolor="#ffffff"
     bordercolor="#666666"
     borderopacity="1.0"
     inkscape:showpageshadow="2"
     inkscape:pageopacity="0.0"
     inkscape:pagecheckerboard="0"
     inkscape:deskcolor="#d1d1d1"
     inkscape:document-units="mm"
     inkscape:zoom="2.0686841"
     inkscape:cx="180.79125"
     inkscape:cy="-10.876479"
     inkscape:window-width="1920"
     inkscape:window-height="1017"
     inkscape:window-x="-8"
     inkscape:window-y="-8"
     inkscape:window-maximized="1"
     inkscape:current-layer="layer1" />
  <defs
     id="defs1">
    <linearGradient
       id="linearGradient9"
       inkscape:collect="always">
      <stop
         style="stop-color:#fc5500;stop-opacity:1;"
         offset="0"
         id="stop8" />
      <stop
         style="stop-color:#ff9a06;stop-opacity:1;"
         offset="1"
         id="stop9" />
    </linearGradient>
    <linearGradient
       id="linearGradient5"
       inkscape:collect="always">
      <stop
         style="stop-color:#ffffff;stop-opacity:1;"
         offset="0"
         id="stop5" />
      <stop
         style="stop-color:#ff7319;stop-opacity:1;"
         offset="1"
         id="stop6" />
    </linearGradient>
    <rect
       x="-251.36752"
       y="-156.62131"
       width="500.80145"
       height="168.22289"
       id="rect3" />
    <rect
       x="157.23479"
       y="205.08887"
       width="581.08508"
       height="334.97849"
       id="rect1" />
    <radialGradient
       inkscape:collect="always"
       xlink:href="#linearGradient5"
       id="radialGradient6"
       cx="100.27213"
       cy="129.55589"
       fx="100.27213"
       fy="129.55589"
       r="47.605354"
       gradientTransform="matrix(1,0,0,0.49003643,-12.135769,0.34862443)"
       gradientUnits="userSpaceOnUse" />
    <linearGradient
       inkscape:collect="always"
       xlink:href="#linearGradient9"
       id="linearGradient8"
       x1="75.465378"
       y1="25.783466"
       x2="191.34814"
       y2="25.783466"
       gradientUnits="userSpaceOnUse"
       gradientTransform="translate(-46.027708,14.020926)" />
  </defs>
  <g
     inkscape:label="Layer 1"
     inkscape:groupmode="layer"
     id="layer1"
     transform="translate(-29.240218,-35.114775)">
    <text
       xml:space="preserve"
       transform="scale(0.26458333)"
       id="text1"
       style="font-style:normal;font-weight:normal;font-size:40px;line-height:1.25;font-family:sans-serif;white-space:pre;shape-inside:url(#rect1);fill:#000000;fill-opacity:1;stroke:none" />
    <path
       d="m 48.153358,61.934141 v -8.471767 c 0.01982,-0.673779 0.326984,-1.010668 0.921491,-1.010668 h 0.683686 v -3.477884 h -8.32314 v 3.477884 h 0.713412 c 0.535059,0 0.802589,0.297255 0.802589,0.891766 v 0.02972 8.32314 c 0,0.178353 -0.01982,0.366615 -0.05945,0.564785 -0.03963,0.19817 -0.198169,0.297255 -0.475608,0.297255 h -0.980942 v 3.358981 h 13.138671 v -6.153178 h -2.70502 c 0,0.535059 -0.05945,0.961124 -0.178353,1.278196 -0.118902,0.297255 -0.26753,0.515242 -0.445883,0.653961 -0.178353,0.118902 -0.366614,0.188262 -0.564784,0.208079 -0.178353,0.01982 -0.326981,0.02973 -0.445883,0.02973 z M 60.25162,48.973822 v 3.477884 h 0.713412 c 0.515242,0 0.772863,0.277438 0.772863,0.832315 v 0.08918 8.32314 c 0,0.178353 -0.01982,0.366615 -0.05945,0.564785 -0.03963,0.19817 -0.198169,0.297255 -0.475608,0.297255 h -0.951216 v 3.358981 h 8.293414 v -3.358981 h -0.05945 -1.010667 c -0.257621,0 -0.406249,-0.09909 -0.445883,-0.297255 -0.03963,-0.19817 -0.05945,-0.386432 -0.05945,-0.564785 v -8.233967 c 0,-0.673779 0.307164,-1.010668 0.921491,-1.010668 h 0.653961 v -3.477884 z m 26.128732,0 -2.199687,5.350591 -2.140236,-5.350591 h -7.580003 v 3.448158 h 0.505334 c 0.178353,-0.01981 0.346797,-0.0099 0.505333,0.02973 0.158536,0.03963 0.277438,0.118901 0.356706,0.237804 0.09909,0.118902 0.148628,0.297255 0.148628,0.53506 v 8.471767 c 0,0.297255 -0.02973,0.505334 -0.08918,0.624236 -0.05945,0.118902 -0.158538,0.19817 -0.297255,0.237804 -0.138719,0.03963 -0.307163,0.04954 -0.505333,0.02972 -0.178353,-0.01981 -0.386432,-0.02972 -0.624236,-0.02972 v 3.358981 h 6.80714 v -3.358981 c -0.277438,0 -0.515242,0.0099 -0.713412,0.02972 -0.19817,0.01982 -0.366615,0.01982 -0.505334,0 -0.118902,-0.03963 -0.217987,-0.118901 -0.297255,-0.237804 -0.05945,-0.138719 -0.08918,-0.356706 -0.08918,-0.653961 v -7.074669 c 0.634144,1.644811 1.278196,3.279714 1.932157,4.904708 0.653961,1.605177 1.298014,3.240079 1.932158,4.904707 l 3.626511,-9.304081 v 6.569335 c 0,0.297255 -0.03963,0.505334 -0.118902,0.624236 -0.05945,0.118902 -0.158538,0.19817 -0.297255,0.237804 -0.118902,0.03963 -0.277438,0.04954 -0.475608,0.02972 -0.19817,-0.01981 -0.416157,-0.02972 -0.653961,-0.02972 v 3.358981 h 8.323139 v -3.358981 c -0.25762,0 -0.49542,0.0099 -0.71341,0.02972 -0.19817,0.01982 -0.36662,0.01982 -0.50534,0 -0.1189,-0.03963 -0.21798,-0.118901 -0.29725,-0.237804 -0.0793,-0.138719 -0.1189,-0.356706 -0.1189,-0.653961 v -8.233957 c 0,-0.277438 0.0495,-0.485518 0.14863,-0.624237 0.0991,-0.158536 0.22789,-0.267529 0.38643,-0.32698 0.15853,-0.05945 0.33689,-0.08918 0.53506,-0.08918 h 0.56478 v -3.448158 z m 21.342878,10.166113 c 1.07012,0 1.60517,0.515242 1.60517,1.545726 0,1.030484 -0.53505,1.545726 -1.60517,1.545726 h -1.09985 v -3.091443 z m 0,-6.48016 c 0.51524,0 0.91158,0.128811 1.18902,0.386432 0.27744,0.237805 0.41615,0.614328 0.41615,1.12957 0,1.010667 -0.53505,1.516 -1.60517,1.516 h -1.09985 v -3.032002 z m 3.24008,4.429101 c 0.51524,-0.118902 1.00076,-0.277438 1.45655,-0.475608 0.45579,-0.19817 0.84222,-0.455791 1.15929,-0.772863 0.31708,-0.317072 0.55488,-0.693595 0.71341,-1.129569 0.17836,-0.435974 0.26753,-0.961125 0.26753,-1.575452 0,-0.871949 -0.13871,-1.575452 -0.41615,-2.110511 -0.27744,-0.535059 -0.65396,-0.951216 -1.12957,-1.248471 -0.45579,-0.317072 -1.01067,-0.525151 -1.66463,-0.624236 -0.63414,-0.118902 -1.32774,-0.178353 -2.08079,-0.178353 h -9.393251 v 3.477884 h 0.594511 c 0.17835,-0.01982 0.32698,-0.0099 0.44588,0.02972 0.13872,0.03963 0.23781,0.12881 0.29725,0.26753 0.0793,0.118902 0.1189,0.317072 0.1189,0.594511 v 8.352865 c 0,0.297255 -0.0396,0.505334 -0.1189,0.624236 -0.0595,0.118902 -0.15855,0.19817 -0.29725,0.237804 -0.1189,0.03963 -0.26753,0.04954 -0.44588,0.02972 -0.17835,-0.01981 -0.37652,-0.02972 -0.594511,-0.02972 v 3.358981 h 9.631061 c 0.73323,0 1.42682,-0.08918 2.08078,-0.267529 0.65396,-0.178353 1.22866,-0.445883 1.72408,-0.802589 0.51524,-0.376523 0.91158,-0.852131 1.18902,-1.426824 0.29726,-0.574693 0.44588,-1.258379 0.44588,-2.051059 0,-1.268288 -0.37652,-2.24923 -1.12957,-2.942825 -0.75304,-0.693595 -1.70425,-1.139477 -2.85364,-1.337647 z m 17.538,5.439775 c -0.51524,0 -0.90167,-0.227895 -1.15929,-0.683686 -0.25762,-0.455791 -0.44588,-0.99085 -0.56479,-1.605177 -0.0991,-0.634144 -0.14862,-1.268288 -0.14862,-1.902432 v -1.486275 c 0,-0.317072 0.0198,-0.723321 0.0594,-1.218746 0.0595,-0.495425 0.14864,-0.971033 0.26753,-1.426824 0.13872,-0.455791 0.33689,-0.852131 0.59451,-1.189021 0.27743,-0.336889 0.62423,-0.505333 1.04039,-0.505333 0.49543,0 0.87195,0.178353 1.12957,0.535059 0.25762,0.33689 0.45579,0.743138 0.59451,1.218746 0.13872,0.475608 0.21799,0.961125 0.2378,1.45655 0.0396,0.475608 0.0594,0.862039 0.0594,1.159294 v 1.664628 c 0,0.634144 -0.0594,1.248471 -0.17835,1.842981 -0.0991,0.574693 -0.29726,1.080027 -0.59451,1.516001 -0.27744,0.416157 -0.72332,0.624235 -1.33765,0.624235 z m 0.14863,-13.881809 c -0.87195,0 -1.71417,0.12881 -2.52667,0.386431 -0.81249,0.257621 -1.56554,0.624236 -2.25913,1.099844 -0.67378,0.475608 -1.25838,1.060209 -1.75381,1.753804 -0.49543,0.673778 -0.87195,1.426825 -1.12957,2.259139 -0.35671,1.129569 -0.53506,2.288864 -0.53506,3.477884 0,1.169203 0.16845,2.288863 0.50534,3.358981 0.35671,1.050301 0.86204,1.9817 1.516,2.794197 0.67377,0.79268 1.48627,1.426824 2.43749,1.902432 0.97103,0.455791 2.08078,0.683687 3.32925,0.683687 h 0.41616 c 1.26829,0 2.38795,-0.237804 3.35898,-0.713412 0.99085,-0.475608 1.83308,-1.119661 2.52667,-1.932158 0.69359,-0.812497 1.21874,-1.753804 1.57545,-2.823922 0.35671,-1.089935 0.53506,-2.229413 0.53506,-3.418433 0,-1.089935 -0.16844,-2.189778 -0.50533,-3.29953 -0.31707,-1.12957 -0.84222,-2.110512 -1.57545,-2.942826 -0.75305,-0.832314 -1.65472,-1.466458 -2.70502,-1.902432 -1.05031,-0.455791 -2.12043,-0.683686 -3.21036,-0.683686 z"
       style="font-size:29.7255px;line-height:1.25;font-family:Glued;-inkscape-font-specification:Glued;fill:url(#radialGradient6);stroke-width:0.264583"
       id="path1" />
    <path
       d="m 48.153358,61.934141 v -8.471767 c 0.01982,-0.673779 0.326984,-1.010668 0.921491,-1.010668 h 0.683686 v -3.477884 h -8.32314 v 3.477884 h 0.713412 c 0.535059,0 0.802589,0.297255 0.802589,0.891766 v 0.02972 8.32314 c 0,0.178353 -0.01982,0.366615 -0.05945,0.564785 -0.03963,0.19817 -0.198169,0.297255 -0.475608,0.297255 h -0.980942 v 3.358981 h 13.138671 v -6.153178 h -2.70502 c 0,0.535059 -0.05945,0.961124 -0.178353,1.278196 -0.118902,0.297255 -0.26753,0.515242 -0.445883,0.653961 -0.178353,0.118902 -0.366614,0.188262 -0.564784,0.208079 -0.178353,0.01982 -0.326981,0.02973 -0.445883,0.02973 z M 60.25162,48.973822 v 3.477884 h 0.713412 c 0.515242,0 0.772863,0.277438 0.772863,0.832315 v 0.08918 8.32314 c 0,0.178353 -0.01982,0.366615 -0.05945,0.564785 -0.03963,0.19817 -0.198169,0.297255 -0.475608,0.297255 h -0.951216 v 3.358981 h 8.293414 v -3.358981 h -0.05945 -1.010667 c -0.257621,0 -0.406249,-0.09909 -0.445883,-0.297255 -0.03963,-0.19817 -0.05945,-0.386432 -0.05945,-0.564785 v -8.233967 c 0,-0.673779 0.307164,-1.010668 0.921491,-1.010668 h 0.653961 v -3.477884 z m 26.128732,0 -2.199687,5.350591 -2.140236,-5.350591 h -7.580003 v 3.448158 h 0.505334 c 0.178353,-0.01981 0.346797,-0.0099 0.505333,0.02973 0.158536,0.03963 0.277438,0.118901 0.356706,0.237804 0.09909,0.118902 0.148628,0.297255 0.148628,0.53506 v 8.471767 c 0,0.297255 -0.02973,0.505334 -0.08918,0.624236 -0.05945,0.118902 -0.158538,0.19817 -0.297255,0.237804 -0.138719,0.03963 -0.307163,0.04954 -0.505333,0.02972 -0.178353,-0.01981 -0.386432,-0.02972 -0.624236,-0.02972 v 3.358981 h 6.80714 v -3.358981 c -0.277438,0 -0.515242,0.0099 -0.713412,0.02972 -0.19817,0.01982 -0.366615,0.01982 -0.505334,0 -0.118902,-0.03963 -0.217987,-0.118901 -0.297255,-0.237804 -0.05945,-0.138719 -0.08918,-0.356706 -0.08918,-0.653961 v -7.074669 c 0.634144,1.644811 1.278196,3.279714 1.932157,4.904708 0.653961,1.605177 1.298014,3.240079 1.932158,4.904707 l 3.626511,-9.304081 v 6.569335 c 0,0.297255 -0.03963,0.505334 -0.118902,0.624236 -0.05945,0.118902 -0.158538,0.19817 -0.297255,0.237804 -0.118902,0.03963 -0.277438,0.04954 -0.475608,0.02972 -0.19817,-0.01981 -0.416157,-0.02972 -0.653961,-0.02972 v 3.358981 h 8.323139 v -3.358981 c -0.25762,0 -0.49542,0.0099 -0.71341,0.02972 -0.19817,0.01982 -0.36662,0.01982 -0.50534,0 -0.1189,-0.03963 -0.21798,-0.118901 -0.29725,-0.237804 -0.0793,-0.138719 -0.1189,-0.356706 -0.1189,-0.653961 v -8.233957 c 0,-0.277438 0.0495,-0.485518 0.14863,-0.624237 0.0991,-0.158536 0.22789,-0.267529 0.38643,-0.32698 0.15853,-0.05945 0.33689,-0.08918 0.53506,-0.08918 h 0.56478 v -3.448158 z m 21.342878,10.166113 c 1.07012,0 1.60517,0.515242 1.60517,1.545726 0,1.030484 -0.53505,1.545726 -1.60517,1.545726 h -1.09985 v -3.091443 z m 0,-6.48016 c 0.51524,0 0.91158,0.128811 1.18902,0.386432 0.27744,0.237805 0.41615,0.614328 0.41615,1.12957 0,1.010667 -0.53505,1.516 -1.60517,1.516 h -1.09985 v -3.032002 z m 3.24008,4.429101 c 0.51524,-0.118902 1.00076,-0.277438 1.45655,-0.475608 0.45579,-0.19817 0.84222,-0.455791 1.15929,-0.772863 0.31708,-0.317072 0.55488,-0.693595 0.71341,-1.129569 0.17836,-0.435974 0.26753,-0.961125 0.26753,-1.575452 0,-0.871949 -0.13871,-1.575452 -0.41615,-2.110511 -0.27744,-0.535059 -0.65396,-0.951216 -1.12957,-1.248471 -0.45579,-0.317072 -1.01067,-0.525151 -1.66463,-0.624236 -0.63414,-0.118902 -1.32774,-0.178353 -2.08079,-0.178353 h -9.393251 v 3.477884 h 0.594511 c 0.17835,-0.01982 0.32698,-0.0099 0.44588,0.02972 0.13872,0.03963 0.23781,0.12881 0.29725,0.26753 0.0793,0.118902 0.1189,0.317072 0.1189,0.594511 v 8.352865 c 0,0.297255 -0.0396,0.505334 -0.1189,0.624236 -0.0595,0.118902 -0.15855,0.19817 -0.29725,0.237804 -0.1189,0.03963 -0.26753,0.04954 -0.44588,0.02972 -0.17835,-0.01981 -0.37652,-0.02972 -0.594511,-0.02972 v 3.358981 h 9.631061 c 0.73323,0 1.42682,-0.08918 2.08078,-0.267529 0.65396,-0.178353 1.22866,-0.445883 1.72408,-0.802589 0.51524,-0.376523 0.91158,-0.852131 1.18902,-1.426824 0.29726,-0.574693 0.44588,-1.258379 0.44588,-2.051059 0,-1.268288 -0.37652,-2.24923 -1.12957,-2.942825 -0.75304,-0.693595 -1.70425,-1.139477 -2.85364,-1.337647 z m 17.538,5.439775 c -0.51524,0 -0.90167,-0.227895 -1.15929,-0.683686 -0.25762,-0.455791 -0.44588,-0.99085 -0.56479,-1.605177 -0.0991,-0.634144 -0.14862,-1.268288 -0.14862,-1.902432 v -1.486275 c 0,-0.317072 0.0198,-0.723321 0.0594,-1.218746 0.0595,-0.495425 0.14864,-0.971033 0.26753,-1.426824 0.13872,-0.455791 0.33689,-0.852131 0.59451,-1.189021 0.27743,-0.336889 0.62423,-0.505333 1.04039,-0.505333 0.49543,0 0.87195,0.178353 1.12957,0.535059 0.25762,0.33689 0.45579,0.743138 0.59451,1.218746 0.13872,0.475608 0.21799,0.961125 0.2378,1.45655 0.0396,0.475608 0.0594,0.862039 0.0594,1.159294 v 1.664628 c 0,0.634144 -0.0594,1.248471 -0.17835,1.842981 -0.0991,0.574693 -0.29726,1.080027 -0.59451,1.516001 -0.27744,0.416157 -0.72332,0.624235 -1.33765,0.624235 z m 0.14863,-13.881809 c -0.87195,0 -1.71417,0.12881 -2.52667,0.386431 -0.81249,0.257621 -1.56554,0.624236 -2.25913,1.099844 -0.67378,0.475608 -1.25838,1.060209 -1.75381,1.753804 -0.49543,0.673778 -0.87195,1.426825 -1.12957,2.259139 -0.35671,1.129569 -0.53506,2.288864 -0.53506,3.477884 0,1.169203 0.16845,2.288863 0.50534,3.358981 0.35671,1.050301 0.86204,1.9817 1.516,2.794197 0.67377,0.79268 1.48627,1.426824 2.43749,1.902432 0.97103,0.455791 2.08078,0.683687 3.32925,0.683687 h 0.41616 c 1.26829,0 2.38795,-0.237804 3.35898,-0.713412 0.99085,-0.475608 1.83308,-1.119661 2.52667,-1.932158 0.69359,-0.812497 1.21874,-1.753804 1.57545,-2.823922 0.35671,-1.089935 0.53506,-2.229413 0.53506,-3.418433 0,-1.089935 -0.16844,-2.189778 -0.50533,-3.29953 -0.31707,-1.12957 -0.84222,-2.110512 -1.57545,-2.942826 -0.75305,-0.832314 -1.65472,-1.466458 -2.70502,-1.902432 -1.05031,-0.455791 -2.12043,-0.683686 -3.21036,-0.683686 z"
       style="font-size:29.7255px;line-height:1.25;font-family:Glued;-inkscape-font-specification:Glued;fill:#ffffff;fill-opacity:1;stroke-width:0.264583"
       id="path14" />
    <text
       xml:space="preserve"
       style="font-style:normal;font-weight:normal;font-size:29.7255px;line-height:1.25;font-family:sans-serif;fill:#000000;fill-opacity:1;stroke:none;stroke-width:0.264583"
       x="39.616802"
       y="69.345467"
       id="text2"><tspan
         sodipodi:role="line"
         id="tspan2"
         style="font-style:normal;font-variant:normal;font-weight:normal;font-stretch:normal;font-family:Glued;-inkscape-font-specification:Glued;stroke-width:0.264583"
         x="39.616802"
         y="69.345467">LIMBO</tspan></text>
    <text
       xml:space="preserve"
       transform="scale(0.26458333)"
       id="text3"
       style="font-style:normal;font-weight:normal;font-size:40px;line-height:1.25;font-family:sans-serif;white-space:pre;shape-inside:url(#rect3);fill:#000000;fill-opacity:1;stroke:none" />
    <path
       d="m 36.303061,41.978174 h -2.6273 v 1.110347 h -1.642063 v -6.583892 h 1.642063 v 1.125986 h 2.627302 v -1.329289 l -1.266735,-0.985238 h -4.363197 l -1.235458,0.985238 v 6.990499 l 1.219819,1.032154 h 4.410113 l 1.235458,-1.047793 z m 4.97311,1.110347 v -6.583892 h 1.688979 v 6.583892 z m 4.331919,-6.787195 -1.282373,-0.985238 h -4.410113 l -1.235458,0.985238 v 6.97486 l 1.20418,1.047793 h 4.488307 l 1.235457,-1.047793 z m 10.665592,6.787195 v -6.583892 h 0.54735 V 35.28481 h -2.68985 c -0.218945,0.448309 -0.448313,0.922683 -0.688106,1.423122 -0.239794,0.490013 -0.4848,0.964387 -0.735019,1.423122 l -0.203303,0.422245 -1.579509,-3.268489 h -2.752411 v 1.219819 h 0.562994 v 6.583892 h -0.562994 v 1.235458 h 3.518708 V 43.088521 H 51.128549 V 39.61673 l 1.360566,2.877521 0.453523,-0.891406 c 0.09383,-0.177238 0.177238,-0.364903 0.250219,-0.562993 0.08341,-0.198091 0.172025,-0.396181 0.265858,-0.594271 0.04171,-0.125109 0.09383,-0.245006 0.156387,-0.35969 0.06255,-0.125109 0.119895,-0.250219 0.172025,-0.375329 v 0.01564 l 0.03128,-0.06256 c 0,-0.01043 0.01043,-0.02607 0.03128,-0.04692 v 0.781935 c 0,0.229367 0.0052,0.443096 0.01564,0.641187 v 1.532592 0.25022 c 0.01043,0.07298 0.01564,0.161599 0.01564,0.265857 h -0.562994 v 1.235458 h 3.503069 v -1.235458 z m 6.42749,-3.878397 v -2.705495 h 1.47003 v 2.705495 z m 0,3.878397 v -2.674217 h 1.47003 v 2.674217 z m 4.09733,-2.298888 c -0.0417,-0.04171 -0.0991,-0.09384 -0.17202,-0.156387 -0.0626,-0.07298 -0.1199,-0.130323 -0.17203,-0.172026 h 0.0156 l -0.6881,-0.688103 1.01652,-0.953961 v -2.51783 l -1.26674,-0.985238 h -5.98962 v 1.188541 h 0.54736 v 6.583892 h -0.54736 v 1.235458 h 6.03654 l 1.21982,-1.047793 z m 9.60217,2.298884 c -0.0104,0 -0.0156,-0.01564 -0.0156,-0.04692 0,-0.01043 -0.005,-0.02085 -0.0156,-0.03128 -0.073,-0.354477 -0.14596,-0.703741 -0.21894,-1.047793 -0.073,-0.344051 -0.14596,-0.698529 -0.21894,-1.063432 l -0.10947,-0.46916 c -0.0417,-0.198091 -0.0834,-0.401394 -0.12511,-0.60991 -0.0313,-0.208516 -0.073,-0.411819 -0.12511,-0.609909 -0.10426,-0.458735 -0.2033,-0.907045 -0.29714,-1.344928 -0.0938,-0.448309 -0.18766,-0.901832 -0.28149,-1.360567 h 0.75066 v -1.18853 h -5.52046 v 1.188541 h 0.76629 c -0.12511,0.583845 -0.25021,1.162477 -0.37532,1.735896 -0.11469,0.562993 -0.22416,1.125986 -0.32842,1.688979 l -0.29713,1.266735 -0.39097,1.892282 h -0.46916 v 1.235458 h 3.48743 v -1.235458 h -0.65683 c 0.0313,-0.14596 0.0573,-0.281496 0.0782,-0.406606 0.0208,-0.125109 0.0469,-0.255431 0.0782,-0.390967 0.0313,-0.12511 0.0521,-0.255432 0.0626,-0.390968 0.0208,-0.135535 0.0417,-0.265857 0.0625,-0.390967 h 1.4544 c 0.0313,0.208516 0.0573,0.390968 0.0782,0.547354 0.0208,0.156388 0.0573,0.344052 0.10947,0.562993 0.0104,0.07298 0.0209,0.156388 0.0313,0.25022 0.0104,0.08341 0.0261,0.156387 0.0469,0.218941 h -0.64118 v 1.235458 h 3.53434 v -1.235458 z m 1.73592,-7.803707 v 2.345805 h 2.07995 v -1.157263 h 0.15638 v 6.615169 h -0.56299 v 1.235458 h 3.73765 v -1.235458 h -0.54736 v -6.615169 h 0.15639 v 1.157263 h 2.07995 V 35.28481 Z m 20.09571,4.910552 -1.26674,-1.016515 h -3.06518 v -2.674218 h 1.72025 v 1.704618 h 2.61167 v -1.92356 l -1.26673,-1.000877 h -4.42575 c -0.10426,0.08341 -0.21373,0.172026 -0.32841,0.265858 -0.10426,0.08341 -0.2033,0.166813 -0.29714,0.250219 -0.0938,0.08341 -0.19809,0.166813 -0.31277,0.25022 -0.10426,0.08341 -0.2033,0.161599 -0.29714,0.23458 v 3.12774 l 1.21982,1.000877 h 3.09646 v 2.674217 h -1.72025 v -1.829727 h -2.59603 v 2.033031 l 1.21982,1.032154 h 4.47267 l 1.23546,-1.047793 z m 2.392718,-4.91055 v 2.345805 h 2.07995 v -1.157263 h 0.15638 v 6.615169 h -0.56299 v 1.235458 h 3.73765 v -1.235458 h -0.54736 v -6.615169 h 0.15639 v 1.157263 h 2.07995 V 35.28481 Z m 16.37371,7.80371 c -0.0104,0 -0.0156,-0.01564 -0.0156,-0.04692 0,-0.01043 -0.005,-0.02085 -0.0156,-0.03128 -0.073,-0.354477 -0.14596,-0.703741 -0.21894,-1.047793 -0.073,-0.344051 -0.14596,-0.698529 -0.21894,-1.063432 l -0.10947,-0.46916 c -0.0417,-0.198091 -0.0834,-0.401394 -0.12511,-0.60991 -0.0313,-0.208516 -0.073,-0.411819 -0.12511,-0.609909 -0.10426,-0.458735 -0.20331,-0.907045 -0.29713,-1.344928 -0.0938,-0.448309 -0.18767,-0.901832 -0.2815,-1.360567 h 0.75066 v -1.188541 h -5.52046 v 1.188541 h 0.76629 c -0.12511,0.583845 -0.25022,1.162477 -0.37533,1.735896 -0.11468,0.562993 -0.22415,1.125986 -0.32841,1.688979 l -0.29714,1.266735 -0.39096,1.892282 h -0.46916 v 1.235458 h 3.48743 v -1.235458 h -0.65683 c 0.0313,-0.14596 0.0573,-0.281496 0.0782,-0.406606 0.0209,-0.125109 0.0469,-0.255431 0.0782,-0.390967 0.0313,-0.12511 0.0521,-0.255432 0.0626,-0.390968 0.0209,-0.135535 0.0417,-0.265857 0.0626,-0.390967 h 1.4544 c 0.0313,0.208516 0.0573,0.390968 0.0782,0.547354 0.0209,0.156388 0.0574,0.344052 0.10947,0.562993 0.0104,0.07298 0.0208,0.156388 0.0313,0.25022 0.0104,0.08341 0.026,0.156387 0.0469,0.218941 h -0.64118 v 1.235458 h 3.53434 v -1.235458 z m 5.58299,0.562992 c 0,0.03128 -0.0156,0.04692 -0.0469,0.04692 z m -3.84706,-8.366704 v 2.345805 h 2.07994 v -1.157263 h 0.15639 v 6.615169 H 120.408 v 1.235458 h 3.73765 v -1.235458 h -0.54736 v -6.615169 h 0.15639 v 1.157263 h 2.07994 V 35.28481 Z m 13.5744,-6e-6 v 1.219819 h 0.56299 v 6.583892 h -1.51695 v -6.583892 h 0.54735 V 35.28481 h -3.73765 v 1.219819 h 0.56299 v 6.787196 l 1.23546,1.032154 h 4.30064 l 1.23546,-1.047793 v -6.771557 h 0.53172 V 35.28481 Z m 13.01135,4.910552 -1.26673,-1.016515 h -3.06519 v -2.674218 h 1.72026 v 1.704618 h 2.61166 v -1.92356 l -1.26669,-1.000871 h -4.42575 c -0.10426,0.08341 -0.21374,0.172026 -0.32842,0.265858 -0.10426,0.08341 -0.2033,0.166813 -0.29713,0.250219 -0.0938,0.08341 -0.1981,0.166813 -0.31278,0.25022 -0.10426,0.08341 -0.2033,0.161599 -0.29713,0.23458 v 3.12774 l 1.21982,1.000877 h 3.09646 v 2.674217 h -1.72026 v -1.829727 h -2.59602 v 2.033031 l 1.21982,1.032154 h 4.47267 l 1.23545,-1.047793 z"
       style="font-size:15.6387px;line-height:1.25;font-family:Falsificata;-inkscape-font-specification:Falsificata;fill:url(#linearGradient8);stroke-width:0.264583"
       id="path1-8" />
    <text
       xml:space="preserve"
       style="font-style:normal;font-weight:normal;font-size:15.6387px;line-height:1.25;font-family:sans-serif;fill:#000000;fill-opacity:1;stroke:none;stroke-width:0.264583"
       x="28.943083"
       y="45.99931"
       id="text4"><tspan
         sodipodi:role="line"
         id="tspan4"
         style="font-style:normal;font-variant:normal;font-weight:normal;font-stretch:normal;font-family:Falsificata;-inkscape-font-specification:Falsificata;stroke-width:0.264583"
         x="28.943083"
         y="45.99931">combat status:</tspan></text>
    <path
       style="fill:#000000;fill-opacity:1;stroke:none;stroke-width:0.264583px;stroke-linecap:butt;stroke-linejoin:miter;stroke-opacity:1"
       d="m 151.34488,35.819807 0.24434,0.423199 v 1.711123 h -1.8191 l -0.20783,-0.207838 z"
       id="path12" />
    <rect
       style="fill:#ffa801;fill-opacity:1;stroke:#000000;stroke-width:0.132292;stroke-linecap:round;stroke-linejoin:miter;stroke-dasharray:none;stroke-opacity:1"
       id="rect9"
       width="1.7183313"
       height="2.0574756"
       x="149.60788"
       y="35.650547" />
    <rect
       style="fill:#ffa801;fill-opacity:1;stroke:#000000;stroke-width:0.132292;stroke-linecap:round;stroke-linejoin:miter;stroke-dasharray:none;stroke-opacity:1"
       id="rect10"
       width="1.3565774"
       height="1.6294267"
       x="149.78876"
       y="35.864571" />
    <path
       style="fill:#000000;fill-opacity:1;stroke:none;stroke-width:0.264583px;stroke-linecap:butt;stroke-linejoin:miter;stroke-opacity:1"
       d="m 151.34488,42.169808 0.24434,0.423199 v 1.711123 h -1.8191 l -0.20783,-0.207838 z"
       id="path13" />
    <rect
       style="fill:#ffa801;fill-opacity:1;stroke:#000000;stroke-width:0.132292;stroke-linecap:round;stroke-linejoin:miter;stroke-dasharray:none;stroke-opacity:1"
       id="rect13"
       width="1.7183313"
       height="2.0574756"
       x="149.60788"
       y="42.000549" />
    <rect
       style="fill:#ffa801;fill-opacity:1;stroke:#000000;stroke-width:0.132292;stroke-linecap:round;stroke-linejoin:miter;stroke-dasharray:none;stroke-opacity:1"
       id="rect14"
       width="1.3565774"
       height="1.6294267"
       x="149.78876"
       y="42.214573" />
  </g>
</svg>
